<mxfile host="app.diagrams.net" modified="2021-06-27T09:30:20.782Z" agent="5.0 (Windows NT 10.0; Win64; x64) AppleWebKit/537.36 (KHTML, like Gecko) Chrome/91.0.4472.114 Safari/537.36" etag="UxOoSfeR4ny7fCFw3T2f" version="14.8.1" type="github">
  <diagram id="19WhXKONC-OqO6uyHztn" name="Page-1">
    <mxGraphModel dx="1422" dy="832" grid="1" gridSize="10" guides="1" tooltips="1" connect="1" arrows="1" fold="1" page="1" pageScale="1" pageWidth="1100" pageHeight="1700" math="0" shadow="0">
      <root>
        <mxCell id="0" />
        <mxCell id="1" parent="0" />
        <mxCell id="-n3JT8xs_y32vfmvB7lT-1" value="Teaching System" style="swimlane;childLayout=stackLayout;resizeParent=1;resizeParentMax=0;startSize=20;" parent="1" vertex="1">
          <mxGeometry x="260" y="20" width="440" height="820" as="geometry" />
        </mxCell>
        <mxCell id="-n3JT8xs_y32vfmvB7lT-2" value="Teacher" style="swimlane;startSize=20;" parent="-n3JT8xs_y32vfmvB7lT-1" vertex="1">
          <mxGeometry y="20" width="120" height="800" as="geometry" />
        </mxCell>
        <mxCell id="yrBjrWcVxZzmMX7ZwHTp-6" value="" style="edgeStyle=orthogonalEdgeStyle;rounded=0;orthogonalLoop=1;jettySize=auto;html=1;" edge="1" parent="-n3JT8xs_y32vfmvB7lT-2" source="yrBjrWcVxZzmMX7ZwHTp-1" target="yrBjrWcVxZzmMX7ZwHTp-5">
          <mxGeometry relative="1" as="geometry" />
        </mxCell>
        <mxCell id="yrBjrWcVxZzmMX7ZwHTp-1" value="" style="ellipse;html=1;shape=startState;strokeColor=#ff0000;fillColor=#3333FF;" vertex="1" parent="-n3JT8xs_y32vfmvB7lT-2">
          <mxGeometry x="45" y="30" width="30" height="30" as="geometry" />
        </mxCell>
        <mxCell id="yrBjrWcVxZzmMX7ZwHTp-5" value="Login" style="ellipse;whiteSpace=wrap;html=1;strokeColor=#ff0000;fillColor=#3333FF;" vertex="1" parent="-n3JT8xs_y32vfmvB7lT-2">
          <mxGeometry y="125" width="120" height="60" as="geometry" />
        </mxCell>
        <mxCell id="yrBjrWcVxZzmMX7ZwHTp-9" value="Tampilkan menu" style="ellipse;whiteSpace=wrap;html=1;strokeColor=#ff0000;fillColor=#3333FF;" vertex="1" parent="-n3JT8xs_y32vfmvB7lT-2">
          <mxGeometry y="260" width="120" height="60" as="geometry" />
        </mxCell>
        <mxCell id="yrBjrWcVxZzmMX7ZwHTp-20" value="Review feedback" style="ellipse;whiteSpace=wrap;html=1;strokeColor=#ff0000;fillColor=#3333FF;" vertex="1" parent="-n3JT8xs_y32vfmvB7lT-2">
          <mxGeometry y="470" width="120" height="60" as="geometry" />
        </mxCell>
        <mxCell id="yrBjrWcVxZzmMX7ZwHTp-11" value="Memberikan course" style="ellipse;whiteSpace=wrap;html=1;strokeColor=#ff0000;fillColor=#3333FF;" vertex="1" parent="-n3JT8xs_y32vfmvB7lT-2">
          <mxGeometry y="360" width="120" height="60" as="geometry" />
        </mxCell>
        <mxCell id="yrBjrWcVxZzmMX7ZwHTp-12" value="" style="edgeStyle=orthogonalEdgeStyle;rounded=0;orthogonalLoop=1;jettySize=auto;html=1;" edge="1" parent="-n3JT8xs_y32vfmvB7lT-2" source="yrBjrWcVxZzmMX7ZwHTp-9" target="yrBjrWcVxZzmMX7ZwHTp-11">
          <mxGeometry relative="1" as="geometry">
            <Array as="points">
              <mxPoint x="60" y="360" />
            </Array>
          </mxGeometry>
        </mxCell>
        <mxCell id="yrBjrWcVxZzmMX7ZwHTp-26" value="" style="edgeStyle=orthogonalEdgeStyle;rounded=0;orthogonalLoop=1;jettySize=auto;html=1;" edge="1" parent="-n3JT8xs_y32vfmvB7lT-2" source="yrBjrWcVxZzmMX7ZwHTp-22">
          <mxGeometry relative="1" as="geometry">
            <mxPoint x="60" y="740" as="targetPoint" />
          </mxGeometry>
        </mxCell>
        <mxCell id="yrBjrWcVxZzmMX7ZwHTp-22" value="Memberikan nilai" style="ellipse;whiteSpace=wrap;html=1;strokeColor=#ff0000;fillColor=#3333FF;" vertex="1" parent="-n3JT8xs_y32vfmvB7lT-2">
          <mxGeometry y="600" width="120" height="60" as="geometry" />
        </mxCell>
        <mxCell id="yrBjrWcVxZzmMX7ZwHTp-23" value="" style="edgeStyle=orthogonalEdgeStyle;rounded=0;orthogonalLoop=1;jettySize=auto;html=1;" edge="1" parent="-n3JT8xs_y32vfmvB7lT-2" source="yrBjrWcVxZzmMX7ZwHTp-20" target="yrBjrWcVxZzmMX7ZwHTp-22">
          <mxGeometry relative="1" as="geometry">
            <Array as="points">
              <mxPoint x="60" y="630" />
            </Array>
          </mxGeometry>
        </mxCell>
        <mxCell id="yrBjrWcVxZzmMX7ZwHTp-27" value="" style="ellipse;html=1;shape=endState;fillColor=#000000;strokeColor=#ff0000;" vertex="1" parent="-n3JT8xs_y32vfmvB7lT-2">
          <mxGeometry x="45" y="740" width="30" height="30" as="geometry" />
        </mxCell>
        <mxCell id="-n3JT8xs_y32vfmvB7lT-3" value="Core System" style="swimlane;startSize=20;" parent="-n3JT8xs_y32vfmvB7lT-1" vertex="1">
          <mxGeometry x="120" y="20" width="200" height="800" as="geometry" />
        </mxCell>
        <mxCell id="yrBjrWcVxZzmMX7ZwHTp-7" value="Verifikasi akun" style="ellipse;whiteSpace=wrap;html=1;strokeColor=#ff0000;fillColor=#3333FF;" vertex="1" parent="-n3JT8xs_y32vfmvB7lT-3">
          <mxGeometry x="40" y="125" width="120" height="60" as="geometry" />
        </mxCell>
        <mxCell id="-n3JT8xs_y32vfmvB7lT-4" value="Student" style="swimlane;startSize=20;" parent="-n3JT8xs_y32vfmvB7lT-1" vertex="1">
          <mxGeometry x="320" y="20" width="120" height="800" as="geometry" />
        </mxCell>
        <mxCell id="yrBjrWcVxZzmMX7ZwHTp-18" value="Memberikan feedback" style="ellipse;whiteSpace=wrap;html=1;strokeColor=#ff0000;fillColor=#3333FF;" vertex="1" parent="-n3JT8xs_y32vfmvB7lT-4">
          <mxGeometry y="470" width="120" height="60" as="geometry" />
        </mxCell>
        <mxCell id="yrBjrWcVxZzmMX7ZwHTp-8" value="" style="edgeStyle=orthogonalEdgeStyle;rounded=0;orthogonalLoop=1;jettySize=auto;html=1;" edge="1" parent="-n3JT8xs_y32vfmvB7lT-1" source="yrBjrWcVxZzmMX7ZwHTp-5" target="yrBjrWcVxZzmMX7ZwHTp-7">
          <mxGeometry relative="1" as="geometry" />
        </mxCell>
        <mxCell id="yrBjrWcVxZzmMX7ZwHTp-10" value="" style="edgeStyle=orthogonalEdgeStyle;rounded=0;orthogonalLoop=1;jettySize=auto;html=1;" edge="1" parent="-n3JT8xs_y32vfmvB7lT-1" source="yrBjrWcVxZzmMX7ZwHTp-7" target="yrBjrWcVxZzmMX7ZwHTp-9">
          <mxGeometry relative="1" as="geometry">
            <Array as="points">
              <mxPoint x="220" y="310" />
            </Array>
          </mxGeometry>
        </mxCell>
        <mxCell id="yrBjrWcVxZzmMX7ZwHTp-21" value="" style="edgeStyle=orthogonalEdgeStyle;rounded=0;orthogonalLoop=1;jettySize=auto;html=1;" edge="1" parent="-n3JT8xs_y32vfmvB7lT-1" source="yrBjrWcVxZzmMX7ZwHTp-18" target="yrBjrWcVxZzmMX7ZwHTp-20">
          <mxGeometry relative="1" as="geometry" />
        </mxCell>
        <mxCell id="yrBjrWcVxZzmMX7ZwHTp-19" value="" style="edgeStyle=orthogonalEdgeStyle;rounded=0;orthogonalLoop=1;jettySize=auto;html=1;" edge="1" parent="-n3JT8xs_y32vfmvB7lT-1" source="yrBjrWcVxZzmMX7ZwHTp-11" target="yrBjrWcVxZzmMX7ZwHTp-18">
          <mxGeometry relative="1" as="geometry" />
        </mxCell>
      </root>
    </mxGraphModel>
  </diagram>
</mxfile>
